:SAMPLES-PER-SECOND 30
:FULLY-SPECIFIED
:DEGREES
327
root  -3.8118 40.8403 0.226424 16.3731 -88.2819 -19.8609
RightUpLeg  7.49989 -2.89069 -1.4412
RightLeg  0.216088 -17.2387 1.09034
RightFoot  -2.61586 -0.333988 4.13635
RightToes  -3.13006e-008 1.75238e-005 3.56266e-009
Spine  -2.54293 -0.776314 -3.92824
Spine1  1.01404 -1.36696 4.25381
HEad  3.89404 -4.55837 6.47033
LeftShoulder1  0.740297 -2.79308 -3.75188
LeftArm  -75.1888 -53.3405 -11.1146
LeftForeArm  112.687 -78.5427 -116.605
LeftHand  -0.857941 -0.962372 15.7498
RightShoulder  0.575898 0.863646 5.41755
RightArm  -79.7237 32.9014 6.65832
RightForeArm  124.434 71.7708 143.887
RightHand  -2.76895 11.1487 -19.6082
LeftUpLeg  5.87235 3.19731 3.58866
LeftLeg  3.15631 9.8498 -0.577723
LeftFoot  -4.16788 0.237969 -3.40011
LeftToes  4.78685e-008 1.46778e-008 1.34523e-009
328
root  -3.7556 40.9001 0.575906 15.7812 -88.7254 -18.1782
RightUpLeg  6.61033 -2.75075 -2.0142
RightLeg  -0.759487 -16.9572 1.04488
RightFoot  -1.65416 -0.424022 4.86882
RightToes  -3.13006e-008 1.75238e-005 3.56266e-009
Spine  -0.596668 -1.11286 -4.33732
Spine1  -2.68861 -1.94433 6.38655
HEad  3.23069 -4.70045 7.55033
LeftShoulder1  0.59676 -2.20637 -2.28696
LeftArm  -78.1232 -53.4195 -7.43171
LeftForeArm  102.355 -79.2498 -106.932
LeftHand  -0.715969 -0.369149 14.5349
RightShoulder  0.413343 -0.0809377 4.11146
RightArm  -82.8886 33.804 5.59982
RightForeArm  121.717 72.7208 141.357
RightHand  -2.66831 10.85 -19.2387
LeftUpLeg  5.34449 2.72349 2.78454
LeftLeg  1.71259 10.7677 -1.04193
LeftFoot  -3.42801 0.223688 -2.93445
LeftToes  4.78685e-008 1.46778e-008 1.34523e-009
329
root  -3.68579 40.9348 0.953819 17.8402 -89.4062 -19.1337
RightUpLeg  5.39927 -2.85648 -2.78178
RightLeg  -1.20024 -16.1827 0.951633
RightFoot  -0.907781 -0.504524 5.45327
RightToes  -3.13006e-008 1.75238e-005 3.56266e-009
Spine  0.822023 -1.08215 -4.26159
Spine1  -5.60292 -2.02994 8.23937
HEad  2.14259 -4.79811 8.06239
LeftShoulder1  0.517907 -1.81858 -1.46115
LeftArm  -79.3932 -53.3545 -5.77171
LeftForeArm  97.7412 -79.5008 -101.875
LeftHand  -0.762439 -0.678926 14.6889
RightShoulder  0.252874 -1.19197 2.92062
RightArm  -85.8046 35.0314 5.1243
RightForeArm  120.434 73.3265 139.664
RightHand  -2.38839 10.0578 -18.1606
LeftUpLeg  4.74977 2.13754 1.88082
LeftLeg  0.378089 12.0181 -1.52687
LeftFoot  -2.87144 0.200101 -2.4718
LeftToes  4.78685e-008 1.46778e-008 1.34523e-009
330
root  -3.62585 40.9621 1.30678 -0.514992 -90 0
RightUpLeg  4.71813 -2.94521 -3.44166
RightLeg  -1.98436 -15.5287 0.982989
RightFoot  -0.17662 -0.581154 5.9285
RightToes  -3.13006e-008 1.75238e-005 3.56266e-009
Spine  0.70097 -1.1138 -4.23097
Spine1  -5.87936 -2.27707 10.031
HEad  1.08684 -4.31819 8.20246
LeftShoulder1  0.473573 -1.5689 -1.0149
LeftArm  -80.651 -52.9222 -4.9577
LeftForeArm  97.4034 -79.6106 -100.336
LeftHand  -0.758632 -0.797713 14.3413
RightShoulder  0.202632 -1.63638 2.77075
RightArm  -88.2393 36.6054 4.62279
RightForeArm  120.727 73.2678 139.852
RightHand  -2.44254 10.0266 -18.5859
LeftUpLeg  4.21613 1.84788 1.19261
LeftLeg  -0.364932 12.9495 -2.01355
LeftFoot  -2.46896 0.152847 -1.77581
LeftToes  4.78685e-008 1.46778e-008 1.34523e-009
331
root  -3.53649 40.9538 1.64916 -178.494 -89.5413 178.359
RightUpLeg  4.32907 -3.15287 -4.03229
RightLeg  -2.46016 -15.0066 1.04291
RightFoot  0.267738 -0.655881 6.46188
RightToes  -3.13006e-008 1.75238e-005 3.56266e-009
Spine  0.912716 -1.02394 -3.71618
Spine1  -5.95643 -2.39848 11.4866
HEad  -0.0519279 -4.51101 8.12691
LeftShoulder1  0.50271 -1.70039 -1.37846
LeftArm  -79.3256 -51.8582 -6.17703
LeftForeArm  103.361 -79.3701 -106.137
LeftHand  -0.72221 -0.640063 14.0119
RightShoulder  0.162528 -1.9904 2.7054
RightArm  -89.259 37.9921 6.05492
RightForeArm  123.255 72.0845 143.009
RightHand  -2.43979 9.94136 -18.6641
LeftUpLeg  3.86784 1.62899 0.64821
LeftLeg  -0.701548 13.6059 -2.35921
LeftFoot  -2.50438 0.101914 -1.1237
LeftToes  4.78685e-008 1.46778e-008 1.34523e-009
332
root  -3.42836 40.9479 1.9329 177.147 -89.5172 -177.381
RightUpLeg  4.55208 -3.25451 -4.41378
RightLeg  -3.09407 -14.938 1.15713
RightFoot  0.702101 -0.720289 6.86624
RightToes  -3.13006e-008 1.75238e-005 3.56266e-009
Spine  0.802421 -0.896722 -3.58604
Spine1  -4.8899 -2.63396 13.1384
HEad  -1.06284 -4.23625 7.85109
LeftShoulder1  0.561457 -1.83723 -2.35027
LeftArm  -76.2014 -51.3451 -9.27843
LeftForeArm  113.781 -78.5996 -116.563
LeftHand  -0.745542 -0.653501 14.419
RightShoulder  0.224129 -1.58371 3.58006
RightArm  -89.0884 38.2553 7.67361
RightForeArm  126.022 70.2517 146.992
RightHand  -2.33186 9.52424 -18.3482
LeftUpLeg  3.55253 1.69651 0.37739
LeftLeg  -0.200057 13.5935 -2.49394
LeftFoot  -2.61068 0.0704863 -0.717802
LeftToes  4.78685e-008 1.46778e-008 1.34523e-009
333
root  -3.30075 40.9222 2.14814 162.869 -89.5421 -163.829
RightUpLeg  5.09133 -3.3717 -4.67998
RightLeg  -2.98441 -14.9639 0.967506
RightFoot  0.742014 -0.74719 7.09838
RightToes  -3.13006e-008 1.75238e-005 3.56266e-009
Spine  0.60919 -0.852656 -3.13123
Spine1  -2.7301 -2.95833 13.6784
HEad  -2.11059 -4.51189 7.91183
LeftShoulder1  0.62309 -2.16331 -2.88686
LeftArm  -72.8379 -50.3483 -12.6854
LeftForeArm  124.177 -77.3714 -126.653
LeftHand  -0.782509 -0.823307 14.7296
RightShoulder  0.442488 -0.302981 6.12699
RightArm  -87.6477 37.931 9.02824
RightForeArm  128.8 68.5606 150.064
RightHand  -2.25566 9.55122 -17.7374
LeftUpLeg  3.94895 1.83049 0.179001
LeftLeg  0.219669 13.4074 -2.57663
LeftFoot  -2.84718 0.0390591 -0.265199
LeftToes  4.78685e-008 1.46778e-008 1.34523e-009
